<?xml version="1.0" standalone="no"?>
<!DOCTYPE svg PUBLIC "-//W3C//DTD SVG 20010904//EN"
 "http://www.w3.org/TR/2001/REC-SVG-20010904/DTD/svg10.dtd">
<svg version="1.0" xmlns="http://www.w3.org/2000/svg"
 width="351.000000pt" height="51.000000pt" viewBox="0 0 351.000000 51.000000"
 preserveAspectRatio="xMidYMid meet">

<g transform="translate(0.000000,51.000000) scale(0.100000,-0.100000)"
fill="#000000" stroke="none">
<path d="M701 480 c-140 -33 -166 -237 -39 -299 48 -23 128 -28 172 -11 25 9
26 10 10 42 -15 32 -17 33 -64 30 -42 -3 -53 0 -75 22 -26 26 -33 72 -15 105
14 27 64 44 105 37 33 -7 36 -5 50 26 l14 33 -37 12 c-43 13 -73 14 -121 3z"/>
<path d="M1872 475 c-93 -29 -136 -110 -98 -184 17 -32 55 -53 150 -84 83 -26
102 -49 67 -78 -30 -25 -111 -25 -166 0 l-40 18 -12 -41 c-16 -51 -8 -58 78
-76 118 -25 233 17 259 96 27 81 -15 141 -118 170 -97 26 -112 34 -112 59 0
46 78 55 186 20 19 -6 23 -2 29 35 4 23 5 43 3 45 -9 9 -124 35 -153 34 -16 0
-49 -6 -73 -14z"/>
<path d="M2287 480 c-78 -20 -117 -66 -117 -139 0 -61 30 -88 140 -125 107
-35 128 -56 91 -87 -32 -26 -118 -26 -171 1 l-38 19 -11 -31 c-19 -55 -15 -64
37 -79 72 -21 178 -17 229 9 51 27 73 65 73 127 0 63 -34 94 -133 124 -96 28
-113 41 -98 69 19 35 107 39 183 7 13 -5 19 1 27 32 15 51 16 48 -26 61 -57
17 -143 22 -186 12z"/>
<path d="M2735 481 c-105 -26 -155 -98 -155 -224 0 -82 18 -135 61 -178 80
-80 215 -77 295 6 62 64 80 158 49 261 -30 102 -140 161 -250 135z m119 -120
c48 -50 48 -170 1 -217 -37 -36 -105 -34 -138 5 -47 56 -42 166 8 217 36 35
93 33 129 -5z"/>
<path d="M50 255 l0 -225 50 0 49 0 3 146 3 145 44 -145 44 -146 37 0 37 0 45
143 46 142 1 -142 1 -143 50 0 50 0 0 225 0 225 -69 0 -70 0 -45 -137 c-33
-102 -47 -133 -52 -118 -4 11 -24 71 -45 135 l-36 115 -72 3 -71 3 0 -226z"/>
<path d="M930 255 l0 -225 50 0 49 0 3 98 3 97 69 -97 69 -98 70 0 c54 0 67 3
60 13 -5 6 -49 61 -97 120 l-88 108 79 87 c120 133 116 122 40 122 l-66 0 -63
-80 c-35 -44 -66 -80 -70 -80 -5 0 -8 36 -8 80 l0 80 -50 0 -50 0 0 -225z"/>
<path d="M1360 255 l0 -225 166 0 165 0 -3 42 -3 43 -112 3 -113 3 0 49 0 50
105 0 105 0 0 45 0 45 -105 0 -105 0 0 40 0 40 115 0 115 0 0 45 0 45 -165 0
-165 0 0 -225z"/>
<path d="M3070 255 l0 -225 50 0 49 0 3 144 3 145 81 -142 81 -142 67 -3 66
-3 0 226 0 225 -50 0 -50 0 0 -142 c-1 -167 6 -168 -101 20 l-70 122 -65 0
-64 0 0 -225z"/>
</g>
</svg>
